<?xml version="1.0" encoding="utf-8"?>
<!-- Generator: Adobe Illustrator 27.6.1, SVG Export Plug-In . SVG Version: 6.00 Build 0)  -->
<svg version="1.1" id="Layer_1" xmlns="http://www.w3.org/2000/svg" xmlns:xlink="http://www.w3.org/1999/xlink" x="0px" y="0px"
         viewBox="0 0 180 72" style="enable-background:new 0 0 180 72;" xml:space="preserve">
<style type="text/css">
        .st0{fill:#EF3924;}
        .st1{fill:#231F20;}
</style>
<g>
        <g>
                <path class="st0" d="M109.2,24.9c-2.8-2.8-6.8-4.6-11.5-4.6c-4.7,0-8.7,1.8-11.6,4.6c-1.8,1.8-3.1,3.9-3.9,6.4l0,0
                        c-1,3-1,6.3,0,9.4l0,0c0.7,2.5,2.1,4.7,3.9,6.4C89,50,93,51.7,97.7,51.7l0,0c4.6,0,8.7-1.8,11.6-4.6c2.9-2.8,4.6-6.8,4.6-11.1
                        v-0.1C113.8,31.6,112.1,27.7,109.2,24.9z"/>
                <path class="st0" d="M80.9,31.3c-0.7-2.4-2-4.5-3.8-6.1c-2.8-2.7-6.9-4.4-11.6-4.4H53.4v18v7.3v5h12c4.7,0,8.7-1.7,11.6-4.4
                        c1.7-1.7,3-3.8,3.8-6.1l0,0C81.8,37.7,81.8,34.4,80.9,31.3L80.9,31.3z"/>
                <path class="st0" d="M48.8,35.2c1.7-1.3,3-3.2,3-6.1V29c0-2.5-1-4.6-2.8-6c-1.8-1.4-4.4-2.2-7.4-2.2H27.4v30.4h14.5
                        c3.4,0,6.2-0.7,8.2-2.1c1.1-0.7,2-1.7,2.5-3l0.1-0.4c0.9-2.2,0.8-4.7-0.1-6.9C51.9,37.2,50.6,36.1,48.8,35.2z"/>
                <path class="st0" d="M22.8,35.2c1.7-1.3,3-3.2,3-6.1V29c0-2.5-1-4.6-2.8-6c-1.8-1.4-4.4-2.2-7.4-2.2H1.4v30.4h14.5
                        c3.4,0,6.2-0.7,8.2-2.1c1.1-0.7,2-1.7,2.5-3l0.1-0.4c0.9-2.2,0.8-4.7-0.1-6.9C25.9,37.2,24.5,36.1,22.8,35.2z"/>
        </g>
        <g>
                <path class="st1" d="M134,25l9,21.4h-6.3l-1.5-3.8H127l-1.5,3.8h-6.2l9-21.4C128.3,25,134,25,134,25z M131.1,31.9l-2.4,6h4.7
                        L131.1,31.9z"/>
                <path class="st1" d="M141.2,30.3v-5.2h18.6v5.2h-6.4v16h-5.9v-16H141.2z"/>
                <path class="st1" d="M168.3,25.1v16.1h10.3v5.2h-16.2V25.1H168.3z"/>
        </g>
</g>
</svg>
